Coordinates
version=1
nRows=14
nColumns=36
inDegrees=yes

Units are S.I. units (second, meters, Newtons, ...)
If the header above contains a line with 'inDegrees', this indicates whether rotational values are in degrees (yes) or radians (no).

endheader
time	pelvis_tilt	pelvis_list	pelvis_rotation	pelvis_tx	pelvis_ty	pelvis_tz	hip_flexion_r	hip_adduction_r	hip_rotation_r	knee_angle_r	knee_angle_r_beta	ankle_angle_r	subtalar_angle_r	mtp_angle_r	hip_flexion_l	hip_adduction_l	hip_rotation_l	knee_angle_l	knee_angle_l_beta	ankle_angle_l	subtalar_angle_l	mtp_angle_l	lumbar_extension	lumbar_bending	lumbar_rotation	arm_flex_r	arm_add_r	arm_rot_r	elbow_flex_r	pro_sup_r	arm_flex_l	arm_add_l	arm_rot_l	elbow_flex_l	pro_sup_l
      1.53000000	    -14.17888625	      3.18883558	     -4.43329608	     -0.24415089	      0.71354481	     -0.59316179	     70.02094785	      0.75759751	      6.97917987	     90.91046510	      1.58668694	     28.39990591	    -18.69681589	     -7.50005884	     74.11171198	     -6.32439847	     -1.53841506	     87.41973900	      1.52576228	     19.69151062	    -16.36650839	     -7.50005884	    -25.49657378	     -2.90604071	      2.71254295	    177.57620020	   -133.92261038	    123.34566242	    133.85568398	     84.25686042	    145.46864560	   -164.39668603	    146.61933300	    132.63774892	    104.22101113
      1.54000000	    -14.68617533	      3.47130016	     -4.52499410	     -0.23949794	      0.70496560	     -0.59327728	     70.87522849	      0.64340255	      7.32558921	     92.38486708	      1.61242011	     30.79604288	    -17.79158327	     -7.50004351	     75.33624887	     -6.76885765	     -2.07333544	     89.24146657	      1.55755742	     20.84534230	    -15.75691110	     -7.50004351	    -25.22611242	     -2.93938660	      4.46708077	    178.39055075	   -138.78861354	    124.66719039	    133.34001279	     90.61005697	    152.54610548	   -165.46721050	    153.29987712	    127.87888240	    107.17977809
      1.55000000	    -15.14875734	      3.54569735	     -4.75297427	     -0.23517837	      0.69702160	     -0.59317661	     71.51158429	      0.72804884	      7.52956226	     93.57047618	      1.63311289	     32.84737144	    -17.09292425	     -7.50004228	     76.54204455	     -7.46117845	     -2.35510016	     91.05695394	      1.58924365	     21.74093523	    -15.15385570	     -7.50004228	    -24.94073204	     -2.78738350	      6.52508997	    178.93212417	   -143.02984648	    125.97439414	    133.03825875	     90.83866550	    159.30460807	   -166.77423914	    159.89255060	    123.04956397	    107.03521335
      1.56000000	    -15.56956151	      3.55190832	     -5.14655191	     -0.23097552	      0.68985565	     -0.59285341	     72.12663799	      0.95780474	      7.67866937	     94.69312361	      1.65270679	     34.86827890	    -15.95675884	     -7.50004098	     77.63939878	     -8.36273036	     -2.59078483	     92.77441409	      1.61921899	     22.65448102	    -14.26561336	     -7.50004098	    -24.69021091	     -2.62293371	      8.93554212	    179.24786086	   -146.75528985	    126.86916021	    132.61283152	     91.24284323	    165.87260127	   -168.43086233	    165.94679731	    118.02712811	    106.91430441
      1.57000000	    -16.14983263	      3.50029106	     -5.59143122	     -0.22649608	      0.68355622	     -0.59230493	     72.94576476	      1.28613034	      7.69598498	     95.73474344	      1.67088648	     35.96302075	    -15.23930695	     -7.50004007	     78.81296391	     -9.33946377	     -2.76846901	     94.34600107	      1.64664835	     23.18070209	    -13.74908181	     -7.50004007	    -24.31979593	     -2.42068345	     11.32739144	    179.48465124	   -150.09982312	    127.96485900	    132.23729085	     91.58713045	    171.89166515	   -170.26863010	    171.40064463	    113.12986079	    106.83587961
      1.58000000	    -16.81221510	      3.48916116	     -6.25727818	     -0.22174757	      0.67799192	     -0.59099859	     73.91627090	      1.93873706	      7.78078588	     96.72583202	      1.68818424	     36.42080986	    -14.97662211	     -7.50003967	     79.93825121	    -10.62352695	     -3.17362698	     95.79458183	      1.67193086	     23.48281532	    -13.71044465	     -7.50003967	    -23.88293860	     -2.42782842	     13.54669783	    179.67793220	   -152.91724834	    129.88401559	    131.95600825	     91.74765594	    177.23542393	   -172.25248472	    175.71512385	    108.99751033	    106.75754517
      1.59000000	    -17.82761850	      3.10400471	     -6.69169464	     -0.21658859	      0.67141791	     -0.59026609	     75.28462765	      2.47334460	      7.29405603	     97.87592644	      1.70825717	     36.64680964	    -14.66934771	     -7.50003936	     81.61646311	    -11.67108381	     -3.00635860	     97.36664319	      1.69936851	     23.94608051	    -13.93057761	     -7.50003936	    -23.16172480	     -2.07364574	     14.67806330	    179.80662992	   -155.07778065	    132.47989407	    131.96957372	     91.89221094	    179.68965650	   -174.22577088	    178.29130660	    108.09486991	    106.94028328
      1.60000000	    -19.49557051	      2.53200488	     -7.06205537	     -0.21129856	      0.66341048	     -0.59021279	     77.31585591	      2.98825504	      6.54723148	     98.98321015	      1.72758292	     36.87679748	    -14.23904362	     -7.50003904	     84.06326583	    -12.52097522	     -2.47687045	     98.97288496	      1.72740271	     24.58276070	    -14.32877184	     -7.50003904	    -21.47852912	     -1.36443574	     14.76362433	    179.88172960	   -156.41335925	    136.96120251	    131.93635013	     92.06285585	    179.87616220	   -176.20927411	    178.91544424	    109.63951079	    107.38264210
      1.61000000	    -21.34092983	      1.96024492	     -7.25625270	     -0.20582742	      0.65581528	     -0.59081568	     79.33828539	      3.20755877	      5.80108776	     99.93432855	      1.74418307	     37.85402609	    -12.79800036	     -7.50003592	     86.49790265	    -12.92335527	     -1.89479780	    100.29688782	      1.75051092	     25.23231710	    -15.01115421	     -7.50003592	    -19.30940014	     -0.40998529	     14.59274512	    179.91740061	   -157.32431783	    141.81187787	    132.04325493	     92.26560806	    179.92607677	   -177.81574582	    179.28764919	    111.02635297	    110.26468875
      1.62000000	    -23.38842900	      1.52168055	     -7.45245278	     -0.20036187	      0.64892557	     -0.59130533	     81.42481545	      3.41584829	      5.11996512	    100.58715774	      1.75557709	     37.95236877	    -12.74986272	     -7.50003539	     88.78748013	    -13.10698371	     -1.44132288	    101.19849213	      1.76624689	     26.20513017	    -16.08007861	     -7.50003539	    -16.90345230	      0.43918201	     14.31943820	    179.93702722	   -158.27731601	    145.98435185	    132.90139369	     92.44541876	    179.94731913	   -178.94706521	    179.50891031	    113.69812712	    111.18357619
      1.63000000	    -25.65117107	      1.22352940	     -7.53093167	     -0.19489324	      0.64279066	     -0.59187085	     83.55224867	      3.53983047	      4.58573227	    101.02719115	      1.76325712	     38.22842531	    -12.61217556	     -7.50003488	     90.99955839	    -12.86318743	     -0.95253776	    101.72653860	      1.77546304	     27.23579267	    -17.32627690	     -7.50003488	    -14.07402549	      1.23239882	     13.74792158	    179.94965310	   -159.26090627	    149.92851244	    134.23816271	     92.64692192	    179.95913779	   -179.43393252	    179.63496600	    116.85415333	    112.45539311
      1.64000000	    -28.07883377	      1.10192805	     -7.51048532	     -0.18947457	      0.63792852	     -0.59260170	     85.66461199	      3.51427915	      4.18542259	    101.15509944	      1.76548954	     38.54815780	    -12.53977217	     -7.50003446	     93.11307422	    -12.34667527	     -0.51136691	    101.86438747	      1.77786895	     28.10188302	    -18.39084174	     -7.50003446	    -11.08393337	      1.91256605	     13.04306266	    179.95846978	   -160.40720907	    153.28034378	    136.05850521	     92.88410976	    179.96661469	   -179.59719082	    179.69710184	    120.48065206	    113.80145430
      1.65000000	    -30.70253064	      1.18376658	     -7.34777513	     -0.18398361	      0.63431613	     -0.59362535	     87.81672044	      3.31772441	      3.97653373	    101.02255987	      1.76317629	     38.77926320	    -12.54407716	     -7.50003294	     95.21303249	    -11.46097738	     -0.10911008	    101.66729030	      1.77442896	     28.07388385	    -20.03138123	     -7.50003294	     -7.65137653	      2.45898297	     12.14758535	    179.96448802	   -161.65325985	    156.41259686	    138.05252867	     93.16174773	    179.97159533	   -179.66306341	    179.72711011	    124.06739116	    116.26927622
      1.66000000	    -33.35182783	      1.28048613	     -7.13882091	     -0.17837124	      0.63231151	     -0.59439063	     89.76202778	      3.15233308	      3.79079271	    100.56279975	      1.75515196	     38.95901294	    -12.76915274	     -7.50003247	     97.17218476	    -10.52112880	      0.41531145	    101.26265496	      1.76736674	     28.45867955	    -20.61562136	     -7.50003247	     -4.05736915	      3.04870301	     11.16817918	    179.96888077	   -162.90564899	    159.67322729	    140.33130012	     93.52347142	    179.97511354	   -179.68231547	    179.74186582	    127.84680476	    116.73308071
